<svg width="18" height="18" viewBox="0 0 18 18" fill="none" xmlns="http://www.w3.org/2000/svg">
<g clip-path="url(#clip0_145_22)">
<path d="M17.9999 5.49661C17.9995 4.88618 17.7568 4.30089 17.3252 3.86926C16.8935 3.43762 16.3082 3.19494 15.6978 3.1945H8.09249C7.89461 2.83426 7.60396 2.53353 7.25068 2.32348C6.89741 2.11342 6.49437 2.00171 6.08337 1.99991H2.30372C1.69351 2.00013 1.1083 2.24234 0.676424 2.67344C0.244549 3.10453 0.00126884 3.6893 -6.10352e-05 4.29951V14.0102C0.00126884 14.6204 0.244549 15.2052 0.676424 15.6363C1.1083 16.0674 1.69351 16.3096 2.30372 16.3098H15.6978C16.3082 16.3092 16.8933 16.0664 17.3249 15.6348C17.7565 15.2032 17.9993 14.6181 17.9999 14.0077V6.51288V6.50451V5.49661ZM15.6978 4.45019C15.9753 4.45041 16.2413 4.56073 16.4375 4.75692C16.6337 4.95312 16.744 5.21915 16.7442 5.49661V5.88504H10.0104C9.80989 5.88477 9.6137 5.82708 9.44502 5.71877C9.27633 5.61047 9.14221 5.45609 9.05854 5.27393L8.68099 4.45019H15.6978ZM16.7459 14.0102C16.7448 14.2875 16.6339 14.553 16.4375 14.7486C16.241 14.9443 15.9751 15.0541 15.6978 15.0541H2.30372C2.02633 15.0537 1.76043 14.9433 1.56429 14.7472C1.36814 14.551 1.25775 14.2851 1.25731 14.0077V4.29951C1.25842 4.02255 1.3691 3.7573 1.56517 3.56169C1.76124 3.36609 2.02677 3.25605 2.30372 3.25561H6.0817C6.28204 3.25592 6.47809 3.31366 6.64664 3.42196C6.81518 3.53027 6.94915 3.68461 7.03268 3.86671L7.91753 5.7963C8.10139 6.19698 8.39624 6.53657 8.76715 6.77485C9.13807 7.01312 9.5695 7.1401 10.0104 7.14073H16.7459V14.0102Z" fill="#4F4F4F"/>
</g>
<defs>
<clipPath id="clip0_145_22">
<rect width="18" height="18" fill="white"/>
</clipPath>
</defs>
</svg>
