<svg width="16" height="18" viewBox="0 0 16 18" fill="none" xmlns="http://www.w3.org/2000/svg">
<path d="M15.3266 16.1789C15.3266 16.3654 15.2525 16.5442 15.1206 16.6761C14.9888 16.808 14.8099 16.882 14.6234 16.882H1.40469C1.21821 16.882 1.03937 16.808 0.907505 16.6761C0.775643 16.5442 0.701564 16.3654 0.701564 16.1789V8.44454C0.700063 8.34914 0.71799 8.25445 0.754253 8.16621C0.790517 8.07796 0.844359 7.99802 0.912502 7.93125L7.50781 1.33594C7.57372 1.26344 7.65404 1.20551 7.74365 1.16586C7.83325 1.12622 7.93015 1.10574 8.02813 1.10574C8.12611 1.10574 8.223 1.12622 8.31261 1.16586C8.40221 1.20551 8.48254 1.26344 8.54844 1.33594L15.1438 7.93125C15.2119 7.99802 15.2657 8.07796 15.302 8.16621C15.3383 8.25445 15.3562 8.34914 15.3547 8.44454L15.3266 16.1789Z" stroke="#4F4F4F" stroke-width="1.125" stroke-linecap="round" stroke-linejoin="round"/>
<path d="M15.3266 16.1789C15.3266 16.3654 15.2525 16.5442 15.1206 16.6761C14.9888 16.808 14.8099 16.882 14.6234 16.882H1.40469C1.21821 16.882 1.03937 16.808 0.907505 16.6761C0.775643 16.5442 0.701564 16.3654 0.701564 16.1789V8.44454C0.700063 8.34914 0.71799 8.25445 0.754253 8.16621C0.790517 8.07796 0.844359 7.99802 0.912502 7.93125L7.50781 1.33594C7.57372 1.26344 7.65404 1.20551 7.74365 1.16586C7.83325 1.12622 7.93015 1.10574 8.02813 1.10574C8.12611 1.10574 8.223 1.12622 8.31261 1.16586C8.40221 1.20551 8.48254 1.26344 8.54844 1.33594L15.1438 7.93125C15.2119 7.99802 15.2657 8.07796 15.302 8.16621C15.3383 8.25445 15.3562 8.34914 15.3547 8.44454L15.3266 16.1789Z" stroke="white" stroke-width="1.125" stroke-linecap="round" stroke-linejoin="round"/>
<path d="M12.3945 13.9781H3.60547V9.28126L8 4.98517L12.3945 9.28126V13.9781Z" stroke="#4F4F4F" stroke-width="1.125" stroke-linecap="round" stroke-linejoin="round"/>
<path d="M12.3945 13.9781H3.60547V9.28126L8 4.98517L12.3945 9.28126V13.9781Z" stroke="white" stroke-width="1.125" stroke-linecap="round" stroke-linejoin="round"/>
<path d="M0.673462 12.143L10.1235 2.91095" stroke="#4F4F4F" stroke-width="1.125" stroke-linecap="round" stroke-linejoin="round"/>
<path d="M0.673462 12.143L10.1235 2.91095" stroke="white" stroke-width="1.125" stroke-linecap="round" stroke-linejoin="round"/>
<path d="M3.60547 13.9781V16.9101" stroke="#4F4F4F" stroke-width="1.125" stroke-linecap="round" stroke-linejoin="round"/>
<path d="M3.60547 13.9781V16.9101" stroke="white" stroke-width="1.125" stroke-linecap="round" stroke-linejoin="round"/>
<path d="M12.3945 13.9781V16.9101" stroke="#4F4F4F" stroke-width="1.125" stroke-linecap="round" stroke-linejoin="round"/>
<path d="M12.3945 13.9781V16.9101" stroke="white" stroke-width="1.125" stroke-linecap="round" stroke-linejoin="round"/>
</svg>
