<svg width="31" height="30" viewBox="0 0 31 30" fill="none" xmlns="http://www.w3.org/2000/svg">
<g clip-path="url(#clip0_193_136)">
<path fill-rule="evenodd" clip-rule="evenodd" d="M3.19401 5.97531C3.24172 5.9115 3.2956 5.855 3.35419 5.80602C4.13277 4.78387 5.03421 3.87327 6.03068 3.0905C6.06506 3.06343 6.10067 3.03897 6.13726 3.0171C6.16833 2.98678 6.20173 2.95814 6.23741 2.93141C7.25115 2.17214 8.36352 1.5375 9.55166 1.05016C9.61456 1.00573 9.6836 0.967888 9.75819 0.938009C12.0468 0.0211174 14.5742 -0.342897 17.1341 -0.0361263C17.2607 -0.020865 17.3789 0.0173235 17.4851 0.0737794C17.5089 0.0754711 17.5328 0.0780145 17.5568 0.0814339C18.7542 0.253235 19.9064 0.565769 20.9959 1.00182C21.0954 1.01165 21.1951 1.03661 21.2918 1.07792C23.6626 2.09233 25.6694 3.67128 27.1924 5.61C27.2412 5.67205 27.2816 5.73809 27.3136 5.8067C27.3719 5.85553 27.4256 5.9118 27.4731 5.97532C28.9511 7.94865 29.9569 10.2957 30.3231 12.8478C30.338 12.952 30.3363 13.0547 30.32 13.1534C30.4592 14.3187 30.4629 15.5125 30.319 16.7135C30.3161 16.7375 30.3124 16.7613 30.3078 16.7848C30.3348 16.902 30.3411 17.026 30.3231 17.1522C29.9569 19.7047 28.9511 22.0518 27.4726 24.0246C27.4249 24.0885 27.371 24.145 27.3123 24.194C26.5338 25.2161 25.6324 26.1267 24.636 26.9094C24.6016 26.9364 24.5661 26.9609 24.5296 26.9827C24.4984 27.0131 24.465 27.0418 24.4292 27.0685C23.4155 27.8279 22.303 28.4625 21.1148 28.9499C21.052 28.9943 20.983 29.032 20.9085 29.0619C18.6198 29.9788 16.0924 30.3428 13.5325 30.036C13.406 30.0208 13.2879 29.9826 13.1816 29.9262C13.1578 29.9245 13.1339 29.9219 13.1099 29.9185C11.9124 29.7467 10.7601 29.4342 9.67052 28.9981C9.57112 28.9882 9.47153 28.9633 9.37484 28.922C7.00403 27.9076 4.99722 26.3286 3.47428 24.3899C3.42545 24.3279 3.38512 24.2619 3.35311 24.1933C3.29476 24.1445 3.24109 24.0882 3.19351 24.0246C1.71552 22.0513 0.709767 19.7042 0.343535 17.1522C0.328664 17.048 0.330362 16.9452 0.346628 16.8465C0.207452 15.6812 0.203736 14.4874 0.347654 13.2864C0.350557 13.2624 0.354288 13.2386 0.358816 13.2152C0.331812 13.098 0.325533 12.9739 0.343535 12.8478C0.709767 10.2952 1.71552 7.94814 3.19401 5.97531ZM7.41011 4.6726C4.32792 7.06285 2.34282 10.8015 2.34282 15C2.34282 17.9721 3.33759 20.7137 5.01212 22.9098C6.70044 25.1017 9.09485 26.7771 11.9711 27.5478C16.0274 28.6347 20.1533 27.6842 23.2601 25.3246C26.3403 22.9342 28.3238 19.1969 28.3238 15C28.3238 12.0252 27.3273 9.28129 25.65 7.08429C23.962 4.89519 21.5693 3.22212 18.6955 2.4521C14.6408 1.36564 10.5165 2.31495 7.41011 4.6726Z" fill="#CBCBCB"/>
<g clip-path="url(#clip1_193_136)">
<path d="M11.0624 23.545C10.9898 23.3965 10.9502 23.4708 10.9531 23.5742C10.9207 23.5558 10.932 23.604 10.9194 23.5742C10.9067 23.5443 10.9063 23.5121 10.9182 23.482C10.9302 23.452 10.9538 23.4256 10.9858 23.4067L11.4358 23.1457L10.5943 23.5282C10.5516 23.5481 10.5007 23.5542 10.4525 23.545C10.4042 23.5359 10.3624 23.5123 10.3359 23.4793C10.3094 23.4463 10.3003 23.4065 10.3105 23.3683C10.3207 23.3301 10.3495 23.2965 10.3906 23.2747L13.9622 21.3406L10.192 23.053C10.1487 23.0736 10.0967 23.0797 10.0477 23.0701C9.99857 23.0605 9.95633 23.036 9.93024 23.0019C9.90415 22.9678 9.89634 22.9269 9.90854 22.8883C9.92073 22.8497 9.95192 22.8165 9.99525 22.7959L11.4678 22.0684L10.1714 22.6573C10.1282 22.6753 10.0779 22.6794 10.0309 22.669C9.98386 22.6586 9.94372 22.6344 9.91873 22.6014C9.89374 22.5684 9.8858 22.5291 9.89656 22.4916C9.90733 22.4541 9.93596 22.4213 9.97657 22.3999L10.4131 22.1884L10.1699 22.2985C10.1267 22.3164 10.0764 22.3206 10.0294 22.3102C9.98234 22.2998 9.94219 22.2756 9.9172 22.2426C9.89221 22.2096 9.88428 22.1703 9.89504 22.1328C9.9058 22.0953 9.93444 22.0625 9.97504 22.0411L12.2006 20.9662L10.1699 21.8884C10.1267 21.9075 10.0758 21.9125 10.0279 21.9026C9.98004 21.8926 9.93898 21.8684 9.91342 21.835C9.88786 21.8016 9.8798 21.7618 9.89094 21.7238C9.90209 21.6858 9.93156 21.6528 9.97314 21.6316L15.861 18.7183L10.1699 21.304C10.1266 21.3232 10.0754 21.3284 10.0274 21.3183C9.97935 21.3083 9.93819 21.2839 9.91268 21.2503C9.88717 21.2167 9.87933 21.1767 9.89084 21.1386C9.90235 21.1006 9.93229 21.0676 9.97428 21.0466L14.0502 19.0549L10.1699 20.8174C10.1265 20.8363 10.0756 20.8411 10.0278 20.8309C9.97999 20.8208 9.93911 20.7963 9.91379 20.7628C9.88848 20.7294 9.88071 20.6894 9.89214 20.6515C9.90358 20.6136 9.93331 20.5807 9.97504 20.5597L11.8365 19.6597L10.1699 20.4184C10.1267 20.4383 10.0754 20.4441 10.0269 20.4345C9.97841 20.4249 9.93666 20.4006 9.91066 20.367C9.88465 20.3334 9.87647 20.2931 9.88787 20.2548C9.89927 20.2165 9.92935 20.1833 9.97161 20.1622L16.4649 16.873L10.1699 19.7323C10.1267 19.7511 10.0759 19.7559 10.0282 19.7458C9.9806 19.7356 9.9398 19.7114 9.91442 19.6781C9.88903 19.6448 9.88105 19.6051 9.89214 19.5672C9.90324 19.5294 9.93254 19.4964 9.9739 19.4752L13.1161 17.9341L10.1699 19.2724C10.1265 19.2913 10.0756 19.2961 10.0278 19.2859C9.97999 19.2758 9.93911 19.2513 9.91379 19.2178C9.88848 19.1844 9.88071 19.1444 9.89214 19.1065C9.90358 19.0686 9.93331 19.0357 9.97504 19.0147L10.1344 18.9382C10.0932 18.9487 10.0487 18.9479 10.0081 18.936C9.96751 18.9242 9.93317 18.9019 9.91061 18.8728C9.8849 18.8392 9.87702 18.7989 9.88864 18.7607C9.90026 18.7225 9.93046 18.6894 9.97276 18.6685L12.9495 17.2021L10.1699 18.4645C10.1268 18.4835 10.076 18.4885 10.0283 18.4787C9.98058 18.4688 9.93958 18.4447 9.91395 18.4115C9.88831 18.3783 9.88004 18.3386 9.89086 18.3007C9.90169 18.2628 9.93077 18.2297 9.97199 18.2083L14.2748 16.0453L10.1699 17.9101C10.1267 17.9283 10.0763 17.9327 10.0291 17.9224C9.98196 17.9121 9.94163 17.8879 9.91649 17.8549C9.89135 17.8218 9.88332 17.7824 9.89408 17.7449C9.90484 17.7073 9.93356 17.6744 9.97428 17.653L11.051 17.1265L10.1699 17.5267C10.1267 17.5466 10.0754 17.5524 10.0269 17.5428C9.97841 17.5332 9.93666 17.5089 9.91066 17.4753C9.88465 17.4417 9.87647 17.4014 9.88787 17.3631C9.89927 17.3248 9.92935 17.2916 9.97161 17.2705L13.7997 15.3355L10.1687 16.9855C10.1473 16.9957 10.1235 17.0024 10.0987 17.0054C10.074 17.0083 10.0487 17.0074 10.0244 17.0026C9.97531 16.993 9.93307 16.9685 9.90698 16.9344C9.88089 16.9003 9.87309 16.8594 9.88528 16.8208C9.89747 16.7822 9.92866 16.749 9.97199 16.7284L13.139 15.1324L10.1699 16.4824C10.1265 16.5029 10.0746 16.5089 10.0255 16.4993C9.97646 16.4896 9.93431 16.465 9.90832 16.4308C9.88233 16.3967 9.87464 16.3558 9.88694 16.3172C9.89924 16.2786 9.93052 16.2455 9.9739 16.225L10.1687 16.1296C10.1254 16.1488 10.0743 16.154 10.0263 16.1439C9.97821 16.1339 9.93705 16.1095 9.91154 16.0759C9.88603 16.0423 9.87819 16.0023 9.8897 15.9642C9.90121 15.9262 9.93115 15.8932 9.97314 15.8722L10.8917 15.4177L10.1699 15.7447C10.127 15.7631 10.0769 15.7678 10.0297 15.7579C9.98261 15.7481 9.94207 15.7244 9.91647 15.6917C9.89088 15.659 9.88217 15.6199 9.89214 15.5823C9.90212 15.5447 9.93001 15.5116 9.97009 15.4897L13.2827 13.7821L10.1699 15.1957C10.1269 15.2138 10.0768 15.2183 10.0297 15.2082C9.9827 15.1981 9.94237 15.1742 9.91704 15.1415C9.8917 15.1087 9.88328 15.0695 9.8935 15.032C9.90372 14.9945 9.93181 14.9615 9.97199 14.9398L11.6424 14.0971L10.1699 14.7658C10.127 14.7854 10.076 14.7911 10.0279 14.7816C9.97978 14.7721 9.93825 14.7482 9.91214 14.715C9.88603 14.6818 9.8774 14.6419 9.88808 14.6038C9.89876 14.5657 9.9279 14.5323 9.96932 14.5108L12.9609 12.9484L10.1699 14.2153C10.1269 14.2345 10.0762 14.2399 10.0283 14.2302C9.98046 14.2206 9.93923 14.1967 9.91332 14.1636C9.88742 14.1305 9.87886 14.0908 9.88945 14.0528C9.90004 14.0148 9.92895 13.9816 9.97009 13.96L12.1457 12.8332L10.1699 13.7308C10.1272 13.75 10.0768 13.7555 10.0291 13.7461C9.98147 13.7368 9.94024 13.7133 9.91402 13.6806C9.88781 13.6479 9.87866 13.6085 9.88846 13.5707C9.89827 13.5328 9.92628 13.4994 9.96666 13.4773L13.0055 11.8351L10.1699 13.123C10.1275 13.1426 10.077 13.1485 10.0292 13.1396C9.98134 13.1306 9.93975 13.1074 9.91311 13.0749C9.88647 13.0423 9.87685 13.003 9.88627 12.965C9.89568 12.927 9.92339 12.8933 9.9636 12.871L13.171 11.0692L10.1699 12.4321C10.1271 12.4505 10.0771 12.4553 10.03 12.4455C9.98288 12.4358 9.94231 12.4122 9.9166 12.3796C9.89089 12.3471 9.88199 12.308 9.89173 12.2705C9.90146 12.2329 9.92909 12.1998 9.96894 12.1777L11.0998 11.584L10.1699 12.0064C10.1272 12.0253 10.0769 12.0306 10.0295 12.0211C9.98199 12.0116 9.94099 11.9881 9.91496 11.9554C9.88893 11.9228 9.87985 11.8835 9.88962 11.8458C9.89938 11.808 9.92724 11.7747 9.96742 11.7526L11.3019 11.0389L10.1699 11.5525C10.1279 11.5715 10.0783 11.5771 10.0311 11.5683C9.984 11.5595 9.9429 11.537 9.91616 11.5052C9.88942 11.4734 9.87905 11.4348 9.88715 11.3973C9.89526 11.3597 9.92123 11.326 9.95979 11.3029L12.4382 9.83293L10.1699 10.8643C10.1279 10.8827 10.0787 10.888 10.032 10.8791C9.98532 10.8702 9.94464 10.8477 9.91809 10.8162C9.89154 10.7847 9.88109 10.7465 9.88882 10.7092C9.89655 10.6719 9.9219 10.6383 9.95979 10.615L11.9085 9.45553L10.1699 10.2451C10.1284 10.2635 10.0796 10.269 10.0332 10.2606C9.98682 10.2521 9.94613 10.2303 9.91915 10.1994C9.89218 10.1685 9.88089 10.1308 9.88749 10.0937C9.89409 10.0565 9.91812 10.0227 9.95484 9.99883L11.8365 8.80093L10.1699 9.55843C10.1286 9.57667 10.0803 9.58221 10.0341 9.57395C9.98801 9.56569 9.94744 9.54424 9.92029 9.51376C9.89315 9.48327 9.88138 9.44594 9.88727 9.40901C9.89316 9.37208 9.91629 9.33819 9.95217 9.31393L11.4556 8.31973L10.1699 8.90383C10.1286 8.9207 10.0809 8.92511 10.0358 8.91624C9.99066 8.90737 9.95121 8.88582 9.92487 8.85566C9.89853 8.82549 9.88712 8.78879 9.89278 8.75247C9.89844 8.71614 9.92078 8.68269 9.9556 8.65843L10.7182 8.17843L10.1699 8.42623C10.1298 8.44397 10.0829 8.44971 10.0378 8.44238C9.99279 8.43505 9.95262 8.41515 9.92475 8.38636C9.89689 8.35756 9.88319 8.3218 9.8862 8.28568C9.8892 8.24957 9.90871 8.21552 9.94111 8.18983L10.9896 7.37473L10.1699 7.74673C10.1308 7.76459 10.085 7.77096 10.0405 7.76469C9.99601 7.75842 9.95581 7.73993 9.92705 7.71251C9.89829 7.68509 9.88285 7.65053 9.88347 7.61498C9.88409 7.57944 9.90073 7.54522 9.93043 7.51843L10.6663 6.85183L10.1706 7.07713C10.1315 7.09497 10.0855 7.10126 10.041 7.09488C9.99643 7.0885 9.95624 7.06985 9.92758 7.04229C9.89892 7.01472 9.88366 6.98003 9.88453 6.94442C9.8854 6.90881 9.90235 6.87461 9.93234 6.84793L10.1832 6.62473C10.148 6.61595 10.1168 6.59931 10.0934 6.57684C10.07 6.55437 10.0554 6.52703 10.0513 6.49814C10.0473 6.46926 10.054 6.44008 10.0707 6.41414C10.0873 6.3882 10.1132 6.36662 10.1451 6.35203L10.7297 6.17925C10.7297 6.33825 10.7944 6.17285 10.839 6.17923C10.8835 6.18561 10.9629 6.12537 10.9916 6.15294C11.0202 6.18051 11.1622 6.11733 11.1614 6.15294C11.1605 6.18855 11.1436 6.22275 11.1136 6.24943L10.9916 6.35803L11.2858 6.17924C11.3248 6.16137 11.3456 6.24316 11.39 6.24943C11.2646 6.37179 11.5599 6.24936 11.5886 6.27678C11.6174 6.3042 11.6538 6.26916 11.6532 6.3047C11.6525 6.34025 11.7297 6.34654 11.7 6.37333L10.9645 7.03843L12.0839 6.53173C12.124 6.51399 12.1709 6.50825 12.216 6.51558C12.261 6.52291 12.3012 6.54281 12.3291 6.5716C12.3569 6.6004 12.3706 6.63616 12.3676 6.67227C12.3646 6.70839 12.3451 6.74244 12.3127 6.76813L11.2634 7.58293L12.7081 6.92683C12.7497 6.90789 12.7989 6.90202 12.8458 6.9104C12.8926 6.91877 12.9338 6.94077 12.9609 6.97198C12.988 7.0032 12.9992 7.04133 12.9921 7.07874C12.9851 7.11615 12.9603 7.15008 12.9228 7.17373L12.1621 7.65373L13.1481 7.20463C13.1893 7.18638 13.2377 7.18085 13.2839 7.18911C13.33 7.19736 13.3706 7.21882 13.3977 7.2493C13.4248 7.27978 13.4366 7.31712 13.4307 7.35405C13.4248 7.39098 13.4017 7.42487 13.3658 7.44913L11.8624 8.44303L13.7505 7.58503C13.7921 7.5662 13.8412 7.56039 13.8879 7.56875C13.9347 7.57712 13.9757 7.59904 14.0029 7.63016C14.03 7.66127 14.0412 7.69929 14.0343 7.73663C14.0274 7.77397 14.0029 7.80789 13.9656 7.83163L12.0839 9.02953L14.3835 7.98463C14.4255 7.96583 14.4749 7.96027 14.5219 7.96906C14.5689 7.97785 14.6099 8.00034 14.6366 8.03199C14.6633 8.06364 14.6738 8.10209 14.6659 8.13957C14.6579 8.17706 14.6322 8.21078 14.594 8.23393L12.6433 9.39463L14.9539 8.34463C14.996 8.32503 15.046 8.31892 15.0937 8.32754C15.1414 8.33617 15.183 8.35888 15.21 8.39097C15.237 8.42307 15.2472 8.46209 15.2387 8.49998C15.2301 8.53787 15.2034 8.57172 15.164 8.59453L12.6856 10.0645L15.5887 8.74453C15.6314 8.72502 15.6821 8.71932 15.7301 8.72863C15.778 8.73793 15.8195 8.76152 15.8458 8.79441C15.8721 8.82731 15.8811 8.86695 15.871 8.90499C15.8609 8.94302 15.8324 8.97649 15.7916 8.99833L14.4571 9.71143L16.0051 9.00853C16.0479 8.98935 16.0986 8.98398 16.1463 8.99354C16.1941 9.0031 16.2353 9.02685 16.2613 9.0598C16.2873 9.09276 16.2961 9.13235 16.2858 9.17028C16.2755 9.20821 16.2469 9.24152 16.206 9.26323L15.0759 9.85843L16.3974 9.25843C16.4398 9.2396 16.4897 9.23422 16.5369 9.24338C16.5841 9.25255 16.6251 9.27557 16.6515 9.30773C16.6778 9.33989 16.6876 9.37876 16.6787 9.41639C16.6698 9.45402 16.643 9.48755 16.6037 9.51013L13.3952 11.3116L17.0338 9.65893C17.0765 9.63975 17.1269 9.63426 17.1745 9.64361C17.2222 9.65296 17.2635 9.67643 17.2897 9.70913C17.3159 9.74182 17.325 9.78122 17.3152 9.81909C17.3054 9.85697 17.2774 9.89041 17.237 9.91243L14.1989 11.5543L17.5924 10.0123C17.6353 9.99312 17.6861 9.98777 17.734 9.99743C17.7818 10.0071 17.823 10.031 17.849 10.0641C17.8749 10.0972 17.8834 10.1369 17.8728 10.1749C17.8622 10.2128 17.8333 10.2461 17.7922 10.2676L15.6189 11.3938L18.0393 10.2943C18.082 10.2764 18.1318 10.2719 18.1785 10.2818C18.2253 10.2917 18.2655 10.3152 18.291 10.3476C18.3165 10.38 18.3255 10.4188 18.3159 10.4561C18.3064 10.4935 18.2792 10.5266 18.2398 10.5487L15.246 12.1135L18.5464 10.6135C18.5894 10.5949 18.6399 10.5901 18.6873 10.6C18.7347 10.61 18.7755 10.6339 18.801 10.6669C18.8266 10.6999 18.835 10.7393 18.8245 10.7771C18.814 10.8148 18.7854 10.8479 18.7446 10.8694L17.0727 11.713L18.941 10.8637C18.9839 10.8454 19.034 10.8407 19.0811 10.8505C19.1283 10.8604 19.1688 10.8841 19.1944 10.9168C19.22 10.9494 19.2287 10.9886 19.2187 11.0262C19.2088 11.0637 19.1809 11.0969 19.1408 11.1187L15.8331 12.8242L19.4462 11.1826C19.4895 11.1621 19.5414 11.1559 19.5905 11.1654C19.6396 11.1749 19.6818 11.1994 19.708 11.2335C19.7341 11.2675 19.742 11.3084 19.7299 11.347C19.7177 11.3856 19.6866 11.4189 19.6433 11.4394L18.7202 11.8984L19.8016 11.4076C19.8449 11.388 19.8962 11.3825 19.9446 11.3924C19.993 11.4022 20.0345 11.4266 20.0602 11.4603C20.0859 11.494 20.0938 11.5343 20.0822 11.5725C20.0705 11.6108 20.0403 11.6439 19.9979 11.6647L19.8073 11.7583L20.1283 11.6128C20.1714 11.5939 20.2222 11.5888 20.2699 11.5987C20.3176 11.6086 20.3586 11.6327 20.3843 11.6659C20.4099 11.6991 20.4182 11.7388 20.4074 11.7767C20.3965 11.8146 20.3674 11.8477 20.3262 11.869L17.1615 13.4632L20.5908 11.9056C20.6339 11.8863 20.6848 11.881 20.7328 11.8907C20.7807 11.9005 20.822 11.9245 20.8478 11.9578C20.8737 11.9911 20.882 12.0309 20.8711 12.069C20.8602 12.107 20.831 12.1402 20.7895 12.1615L16.9549 14.0983L21.0896 12.22C21.1329 12.1996 21.1849 12.1935 21.2339 12.2032C21.283 12.2129 21.3251 12.2375 21.3511 12.2716C21.3771 12.3058 21.3848 12.3466 21.3725 12.3852C21.3602 12.4238 21.3289 12.457 21.2855 12.4774L20.2137 13.0012L21.4426 12.4432C21.4856 12.4251 21.5358 12.4207 21.5828 12.4308C21.6298 12.4409 21.6701 12.4647 21.6955 12.4975C21.7208 12.5303 21.7292 12.5694 21.719 12.6069C21.7088 12.6444 21.6807 12.6774 21.6405 12.6991L17.3354 14.863L21.9532 12.7657C21.9963 12.7473 22.0468 12.7427 22.0942 12.7529C22.1415 12.7631 22.182 12.7872 22.2073 12.8203C22.2326 12.8534 22.2407 12.8929 22.23 12.9305C22.2192 12.9682 22.1904 13.0012 22.1495 13.0225L19.1755 14.488L22.3783 13.0336C22.4218 13.0133 22.4738 13.0073 22.5228 13.0171C22.5719 13.0269 22.614 13.0516 22.6399 13.0858C22.6658 13.12 22.6733 13.1609 22.6609 13.1995C22.6484 13.2381 22.617 13.2713 22.5735 13.2916L22.5442 13.3054L22.6967 13.2355C22.7399 13.2168 22.7907 13.212 22.8383 13.2221C22.886 13.2322 22.9268 13.2565 22.9521 13.2898C22.9775 13.3231 22.9855 13.3628 22.9744 13.4006C22.9633 13.4385 22.934 13.4714 22.8927 13.4926L19.7501 15.0337L23.1203 13.5037C23.1634 13.4844 23.2143 13.4791 23.2622 13.4888C23.3102 13.4986 23.3515 13.5226 23.3773 13.5559C23.4031 13.5892 23.4115 13.629 23.4006 13.6671C23.3897 13.7051 23.3604 13.7383 23.3189 13.7596L16.8245 17.0476L23.7513 13.9012C23.7946 13.8828 23.8452 13.8782 23.8927 13.8884C23.9401 13.8987 23.9807 13.923 24.0059 13.9562C24.0311 13.9895 24.039 14.0291 24.028 14.0668C24.0169 14.1045 23.9877 14.1374 23.9465 14.1586L22.0817 15.0586L24.1166 14.1343C24.1381 14.1242 24.1619 14.1175 24.1867 14.1146C24.2114 14.1117 24.2367 14.1127 24.261 14.1175C24.2852 14.1223 24.3081 14.1308 24.3282 14.1425C24.3483 14.1543 24.3653 14.169 24.3782 14.1859C24.391 14.2028 24.3995 14.2216 24.4032 14.241C24.4069 14.2605 24.4056 14.2804 24.3995 14.2995C24.3934 14.3186 24.3826 14.3366 24.3677 14.3524C24.3528 14.3682 24.3341 14.3816 24.3126 14.3917L20.2385 16.3837L24.4056 14.491C24.4487 14.4724 24.4993 14.4676 24.5469 14.4776C24.5944 14.4876 24.6352 14.5117 24.6606 14.5449C24.6861 14.578 24.6943 14.6176 24.6835 14.6553C24.6727 14.6931 24.6438 14.7262 24.6027 14.7475L18.7122 17.6626L24.2851 15.1306C24.3283 15.1127 24.3786 15.1085 24.4257 15.1189C24.4727 15.1293 24.5128 15.1536 24.5378 15.1866C24.5628 15.2196 24.5707 15.2589 24.56 15.2964C24.5492 15.3339 24.5206 15.3667 24.48 15.388L22.2487 16.4659C22.2924 16.449 22.3427 16.4458 22.3893 16.4572C22.4359 16.4685 22.4752 16.4934 22.4991 16.5269C22.523 16.5603 22.5298 16.5996 22.5179 16.6369C22.5061 16.6741 22.4766 16.7063 22.4355 16.7269L20.3579 17.7328C20.3943 17.7398 20.4274 17.7551 20.4529 17.7767C20.4784 17.7984 20.4952 17.8255 20.5011 17.8547C20.5071 17.8838 20.502 17.9137 20.4865 17.9406C20.471 17.9675 20.4458 17.9902 20.4139 18.0058L18.0538 19.171C18.0923 19.1747 18.1284 19.1874 18.1575 19.2077C18.1865 19.2279 18.207 19.2546 18.2162 19.2842C18.2255 19.3139 18.223 19.345 18.2092 19.3735C18.1953 19.402 18.1708 19.4265 18.1388 19.4437L14.3187 21.5137C14.3821 21.5187 14.4405 21.5432 14.4811 21.5818C14.5076 21.6139 14.5175 21.6528 14.5088 21.6904C14.5 21.7281 14.4734 21.7617 14.4342 21.7843L12.2399 23.053C12.2509 23.085 12.2482 23.1189 12.2322 23.1495C12.2162 23.1801 12.1878 23.2057 12.1514 23.2222L11.261 23.5078C11.261 23.3794 11.0624 23.3503 11.0624 23.545Z" fill="#3B6EF8"/>
<path d="M11.9364 23.3497C16.051 20.7539 20.1642 18.1561 24.276 15.5563C25.262 14.9588 25.0904 14.5805 24.2767 14.0455L15.9151 8.76461C14.1093 7.67981 9.43514 3.7579 9.78668 8.00321C9.78668 11.872 9.78668 15.741 9.78668 19.6102C9.9106 20.9227 8.87426 24.6784 11.9364 23.3497ZM10.4757 6.49C11.3076 5.7004 13.2446 7.8157 14.1387 8.13401C28.8842 17.6092 26.2701 12.8509 12.4572 22.6804C10.036 24.6289 10.3026 22.1215 10.3396 20.7403C10.47 16.006 10.0856 11.1826 10.4757 6.49Z" fill="#CBCBCB"/>
</g>
</g>
<defs>
<clipPath id="clip0_193_136">
<rect width="30" height="30" fill="white" transform="translate(0.333344)"/>
</clipPath>
<clipPath id="clip1_193_136">
<rect width="18" height="18" fill="white" transform="translate(7.33333 6.00002)"/>
</clipPath>
</defs>
</svg>
