<svg width="30" height="30" viewBox="0 0 30 30" fill="none" xmlns="http://www.w3.org/2000/svg">
<path fill-rule="evenodd" clip-rule="evenodd" d="M13.0619 27.9291C10.8504 27.6121 8.81782 26.7405 7.10874 25.4599C6.66514 25.1274 6.03467 25.2178 5.7021 25.6619C5.37003 26.1055 5.45996 26.736 5.90406 27.068C7.87688 28.5465 10.224 29.5523 12.7765 29.9185C13.3256 29.9969 13.8351 29.6151 13.9139 29.0665C13.9923 28.5174 13.6105 28.008 13.0619 27.9291ZM16.7956 2.07085C23.122 2.97764 27.9905 8.42489 27.9905 15C27.9905 21.5751 23.122 27.0223 16.7956 27.9291C16.247 28.008 15.8651 28.5174 15.9435 29.0665C16.0224 29.6151 16.5318 29.9969 17.0809 29.9185C24.3809 28.8721 30 22.5874 30 15C30 7.41261 24.3809 1.12789 17.0809 0.0814415C16.5318 0.00307094 16.0224 0.384876 15.9435 0.93347C15.8651 1.48257 16.247 1.99198 16.7956 2.07085ZM4.46876 22.82C3.1882 21.1104 2.31659 19.0778 1.99959 16.8668C1.92072 16.3182 1.41131 15.9364 0.862718 16.0148C0.313622 16.0936 -0.0681866 16.6031 0.0101839 17.1522C0.376416 19.7042 1.38217 22.0513 2.86016 24.0246C3.19273 24.4687 3.82322 24.5587 4.26681 24.2266C4.71091 23.894 4.80133 23.2636 4.46876 22.82ZM1.99959 13.1332C2.31659 10.9217 3.1882 8.88908 4.46876 7.18C4.80133 6.7364 4.71091 6.10593 4.26681 5.77336C3.82322 5.44129 3.19273 5.53122 2.86066 5.97532C1.38217 7.94814 0.376416 10.2952 0.0101839 12.8478C-0.0681866 13.3969 0.313618 13.9063 0.862212 13.9852C1.41131 14.0636 1.92072 13.6817 1.99959 13.1332ZM7.10874 4.54002C8.81833 3.25946 10.8509 2.38785 13.0619 2.07085C13.6105 1.99198 13.9923 1.48257 13.9139 0.933976C13.8351 0.384879 13.3256 0.00307094 12.7765 0.0814415C10.2245 0.447673 7.87739 1.45343 5.90406 2.93142C5.45996 3.26399 5.37003 3.89447 5.7021 4.33807C6.03467 4.78217 6.66514 4.87259 7.10874 4.54002Z" fill="#3B6EF8"/>
<g clip-path="url(#clip0_193_116)">
<path d="M10.729 23.545C10.6564 23.3965 10.6169 23.4708 10.6198 23.5742C10.5873 23.5558 10.5987 23.604 10.586 23.5742C10.5734 23.5443 10.573 23.5121 10.5849 23.482C10.5968 23.452 10.6205 23.4256 10.6525 23.4067L11.1024 23.1457L10.2609 23.5282C10.2182 23.5481 10.1674 23.5542 10.1191 23.545C10.0709 23.5359 10.0291 23.5123 10.0026 23.4793C9.97605 23.4463 9.96694 23.4065 9.97716 23.3683C9.98739 23.3301 10.0161 23.2965 10.0573 23.2747L13.6288 21.3406L9.85865 23.053C9.81532 23.0736 9.7634 23.0797 9.71431 23.0701C9.66522 23.0605 9.62299 23.036 9.5969 23.0019C9.57081 22.9678 9.563 22.9269 9.57519 22.8883C9.58738 22.8497 9.61858 22.8165 9.66191 22.7959L11.1344 22.0684L9.83806 22.6573C9.79485 22.6752 9.74455 22.6794 9.69754 22.669C9.65052 22.6586 9.61038 22.6344 9.58538 22.6014C9.56039 22.5684 9.55246 22.5291 9.56322 22.4916C9.57398 22.4541 9.60262 22.4213 9.64323 22.3999L10.0798 22.1884L9.83654 22.2985C9.79333 22.3164 9.74303 22.3206 9.69601 22.3102C9.649 22.2998 9.60885 22.2756 9.58386 22.2426C9.55887 22.2096 9.55093 22.1703 9.5617 22.1328C9.57246 22.0953 9.6011 22.0625 9.6417 22.0411L11.8673 20.9662L9.83654 21.8884C9.79334 21.9075 9.74243 21.9125 9.69456 21.9026C9.6467 21.8926 9.60564 21.8684 9.58008 21.835C9.55451 21.8016 9.54645 21.7618 9.5576 21.7238C9.56874 21.6858 9.59822 21.6528 9.63979 21.6316L15.5276 18.7183L9.83654 21.304C9.79323 21.3232 9.7421 21.3284 9.69406 21.3183C9.64601 21.3083 9.60485 21.2839 9.57934 21.2503C9.55383 21.2167 9.54599 21.1767 9.5575 21.1386C9.56901 21.1006 9.59895 21.0676 9.64094 21.0466L13.7169 19.0549L9.83654 20.8174C9.7932 20.8363 9.74224 20.8411 9.69445 20.8309C9.64665 20.8207 9.60577 20.7963 9.58045 20.7628C9.55513 20.7294 9.54737 20.6894 9.5588 20.6515C9.57023 20.6136 9.59996 20.5807 9.6417 20.5597L11.5031 19.6597L9.83654 20.4184C9.79339 20.4383 9.74205 20.4441 9.69356 20.4345C9.64507 20.4249 9.60332 20.4006 9.57731 20.367C9.55131 20.3334 9.54312 20.2931 9.55453 20.2548C9.56593 20.2165 9.596 20.1833 9.63827 20.1622L16.1316 16.873L9.83654 19.7323C9.79331 19.7511 9.74254 19.7559 9.6949 19.7458C9.64726 19.7356 9.60645 19.7114 9.58107 19.6781C9.55569 19.6448 9.54771 19.605 9.5588 19.5672C9.56989 19.5294 9.5992 19.4964 9.64056 19.4752L12.7827 17.9341L9.83654 19.2724C9.7932 19.2913 9.74224 19.2961 9.69445 19.2859C9.64665 19.2757 9.60577 19.2513 9.58045 19.2178C9.55513 19.1844 9.54737 19.1444 9.5588 19.1065C9.57023 19.0686 9.59996 19.0357 9.6417 19.0147L9.80108 18.9382C9.75986 18.9487 9.71537 18.9479 9.67477 18.936C9.63417 18.9242 9.59983 18.9019 9.57726 18.8728C9.55156 18.8392 9.54367 18.7989 9.55529 18.7607C9.56692 18.7225 9.59712 18.6894 9.63941 18.6685L12.6161 17.2021L9.83654 18.4645C9.79345 18.4835 9.7427 18.4885 9.69497 18.4786C9.64723 18.4688 9.60624 18.4447 9.5806 18.4115C9.55497 18.3783 9.54669 18.3386 9.55752 18.3007C9.56834 18.2628 9.59743 18.2297 9.63865 18.2083L13.9415 16.0453L9.83654 17.9101C9.79336 17.9283 9.74296 17.9327 9.69579 17.9224C9.64862 17.9121 9.60829 17.8879 9.58314 17.8549C9.558 17.8218 9.54998 17.7824 9.56074 17.7448C9.5715 17.7073 9.60021 17.6744 9.64094 17.653L10.7177 17.1265L9.83654 17.5267C9.79339 17.5466 9.74205 17.5524 9.69356 17.5428C9.64507 17.5332 9.60332 17.5089 9.57731 17.4753C9.55131 17.4417 9.54312 17.4014 9.55453 17.3631C9.56593 17.3248 9.596 17.2916 9.63827 17.2705L13.4664 15.3355L9.83539 16.9855C9.81394 16.9957 9.79015 17.0024 9.76538 17.0054C9.74062 17.0083 9.71536 17.0074 9.69105 17.0026C9.64196 16.993 9.59973 16.9685 9.57364 16.9344C9.54755 16.9003 9.53974 16.8594 9.55193 16.8208C9.56413 16.7822 9.59532 16.749 9.63865 16.7284L12.8056 15.1324L9.83654 16.4824C9.79316 16.5029 9.74123 16.5089 9.69217 16.4993C9.64312 16.4896 9.60096 16.465 9.57497 16.4308C9.54899 16.3967 9.5413 16.3558 9.55359 16.3172C9.56589 16.2786 9.59717 16.2455 9.64056 16.225L9.83539 16.1296C9.79208 16.1488 9.74096 16.154 9.69291 16.1439C9.64487 16.1339 9.6037 16.1095 9.57819 16.0759C9.55268 16.0423 9.54485 16.0023 9.55635 15.9642C9.56786 15.9262 9.5978 15.8932 9.63979 15.8722L10.5583 15.4177L9.83654 15.7447C9.79369 15.7631 9.74354 15.7678 9.6964 15.7579C9.64927 15.7481 9.60873 15.7244 9.58313 15.6917C9.55753 15.659 9.54883 15.6199 9.5588 15.5823C9.56877 15.5447 9.59667 15.5116 9.63674 15.4897L12.9494 13.7821L9.83654 15.1957C9.79356 15.2138 9.74341 15.2183 9.69638 15.2082C9.64936 15.1981 9.60903 15.1742 9.58369 15.1415C9.55836 15.1087 9.54993 15.0695 9.56015 15.032C9.57037 14.9945 9.59846 14.9615 9.63865 14.9398L11.3091 14.0971L9.83654 14.7658C9.79362 14.7854 9.74268 14.7911 9.69456 14.7816C9.64643 14.7721 9.60491 14.7482 9.5788 14.715C9.55269 14.6818 9.54406 14.6419 9.55474 14.6038C9.56541 14.5657 9.59456 14.5323 9.63598 14.5108L12.6276 12.9484L9.83654 14.2153C9.79359 14.2345 9.74283 14.2399 9.69497 14.2302C9.64711 14.2206 9.60589 14.1967 9.57998 14.1636C9.55408 14.1305 9.54551 14.0908 9.5561 14.0528C9.56669 14.0148 9.5956 13.9816 9.63674 13.96L11.8124 12.8332L9.83654 13.7308C9.79389 13.75 9.74347 13.7555 9.6958 13.7461C9.64813 13.7368 9.60689 13.7133 9.58068 13.6806C9.55447 13.6479 9.54531 13.6085 9.55512 13.5707C9.56493 13.5328 9.59294 13.4994 9.63331 13.4773L12.6722 11.8351L9.83654 13.123C9.79411 13.1426 9.7437 13.1485 9.69585 13.1396C9.648 13.1306 9.6064 13.1074 9.57977 13.0749C9.55313 13.0423 9.54351 13.003 9.55292 12.965C9.56233 12.927 9.59004 12.8933 9.63026 12.871L12.8376 11.0692L9.83654 12.4321C9.79379 12.4505 9.74373 12.4553 9.69663 12.4455C9.64953 12.4358 9.60897 12.4122 9.58326 12.3796C9.55755 12.3471 9.54865 12.308 9.55838 12.2705C9.56812 12.2329 9.59574 12.1998 9.6356 12.1777L10.7665 11.584L9.83654 12.0064C9.79385 12.0253 9.74357 12.0306 9.69611 12.0211C9.64865 12.0116 9.60765 11.9881 9.58162 11.9554C9.55558 11.9228 9.54651 11.8835 9.55627 11.8458C9.56604 11.808 9.5939 11.7747 9.63407 11.7526L10.9686 11.0389L9.83654 11.5525C9.79452 11.5715 9.74491 11.5771 9.69778 11.5683C9.65066 11.5595 9.60956 11.537 9.58282 11.5052C9.55608 11.4734 9.5457 11.4348 9.55381 11.3973C9.56191 11.3597 9.58788 11.326 9.62645 11.3029L12.1048 9.83293L9.83654 10.8643C9.79459 10.8827 9.74535 10.888 9.69866 10.8791C9.65198 10.8702 9.61129 10.8477 9.58474 10.8162C9.5582 10.7847 9.54774 10.7465 9.55548 10.7092C9.56321 10.6719 9.58856 10.6383 9.62645 10.615L11.5752 9.45553L9.83654 10.2451C9.79504 10.2635 9.74629 10.269 9.69988 10.2606C9.65348 10.2521 9.61278 10.2303 9.58581 10.1994C9.55884 10.1685 9.54754 10.1308 9.55415 10.0937C9.56075 10.0565 9.58477 10.0227 9.62149 9.99883L11.5031 8.80093L9.83654 9.55843C9.79531 9.57667 9.74692 9.5822 9.7008 9.57395C9.65467 9.56569 9.61409 9.54424 9.58695 9.51376C9.5598 9.48327 9.54803 9.44594 9.55393 9.40901C9.55982 9.37208 9.58295 9.33819 9.61882 9.31393L11.1222 8.31973L9.83654 8.90383C9.79526 8.9207 9.74757 8.92511 9.70244 8.91624C9.65732 8.90737 9.61787 8.88582 9.59153 8.85565C9.56519 8.82549 9.55377 8.78879 9.55943 8.75246C9.56509 8.71614 9.58744 8.68269 9.62225 8.65843L10.3848 8.17843L9.83654 8.42623C9.79644 8.44397 9.74954 8.4497 9.70449 8.44238C9.65944 8.43505 9.61928 8.41515 9.59141 8.38635C9.56354 8.35756 9.54985 8.3218 9.55285 8.28568C9.55586 8.24956 9.57536 8.21552 9.60777 8.18983L10.6563 7.37473L9.83654 7.74673C9.79747 7.76459 9.75161 7.77095 9.70714 7.76469C9.66267 7.75842 9.62247 7.73993 9.59371 7.71251C9.56495 7.68509 9.5495 7.65053 9.55012 7.61498C9.55074 7.57943 9.56739 7.54522 9.59709 7.51843L10.333 6.85183L9.8373 7.07713C9.79812 7.09497 9.75216 7.10126 9.70762 7.09488C9.66309 7.08849 9.6229 7.06985 9.59424 7.04228C9.56557 7.01472 9.55031 6.98003 9.55119 6.94442C9.55206 6.90881 9.56901 6.8746 9.599 6.84793L9.84988 6.62473C9.81468 6.61595 9.78347 6.59931 9.76006 6.57684C9.73665 6.55437 9.72203 6.52703 9.71799 6.49814C9.71396 6.46926 9.72067 6.44008 9.73731 6.41414C9.75396 6.3882 9.77982 6.36662 9.81175 6.35203L10.3964 6.17924C10.3964 6.33825 10.4611 6.17284 10.5056 6.17923C10.5502 6.18561 10.6295 6.12537 10.6582 6.15294C10.6869 6.18051 10.8289 6.11733 10.828 6.15294C10.8272 6.18855 10.8102 6.22275 10.7802 6.24943L10.6582 6.35803L10.9524 6.17923C10.9915 6.16137 11.0122 6.24316 11.0567 6.24943C10.9313 6.37179 11.2265 6.24936 11.2553 6.27677C11.284 6.30419 11.3204 6.26916 11.3198 6.3047C11.3192 6.34025 11.3963 6.34654 11.3666 6.37333L10.6311 7.03843L11.7506 6.53173C11.7907 6.51399 11.8376 6.50825 11.8826 6.51558C11.9277 6.52291 11.9679 6.5428 11.9957 6.5716C12.0236 6.6004 12.0373 6.63615 12.0343 6.67227C12.0313 6.70839 12.0118 6.74243 11.9794 6.76813L10.9301 7.58293L12.3748 6.92683C12.4164 6.90789 12.4655 6.90202 12.5124 6.91039C12.5593 6.91877 12.6004 6.94076 12.6276 6.97198C12.6547 7.0032 12.6659 7.04133 12.6588 7.07874C12.6517 7.11615 12.6269 7.15008 12.5894 7.17373L11.8288 7.65373L12.8148 7.20463C12.856 7.18638 12.9044 7.18085 12.9505 7.18911C12.9966 7.19736 13.0372 7.21882 13.0644 7.2493C13.0915 7.27978 13.1033 7.31712 13.0974 7.35405C13.0915 7.39098 13.0684 7.42487 13.0325 7.44913L11.5291 8.44303L13.4172 7.58503C13.4588 7.5662 13.5078 7.56039 13.5546 7.56875C13.6014 7.57712 13.6424 7.59904 13.6695 7.63016C13.6967 7.66127 13.7079 7.69929 13.701 7.73663C13.6941 7.77397 13.6695 7.80789 13.6322 7.83163L11.7506 9.02953L14.0501 7.98463C14.0921 7.96583 14.1416 7.96027 14.1886 7.96906C14.2355 7.97785 14.2765 8.00034 14.3032 8.03199C14.33 8.06364 14.3404 8.10209 14.3325 8.13957C14.3246 8.17705 14.2989 8.21078 14.2606 8.23393L12.3099 9.39463L14.6205 8.34463C14.6626 8.32503 14.7127 8.31891 14.7604 8.32754C14.808 8.33617 14.8496 8.35887 14.8766 8.39097C14.9036 8.42306 14.9139 8.46209 14.9053 8.49998C14.8968 8.53787 14.87 8.57172 14.8306 8.59453L12.3523 10.0645L15.2554 8.74453C15.2981 8.72502 15.3488 8.71932 15.3967 8.72863C15.4447 8.73793 15.4862 8.76151 15.5125 8.79441C15.5388 8.82731 15.5478 8.86695 15.5377 8.90499C15.5276 8.94302 15.4991 8.97649 15.4582 8.99833L14.1237 9.71143L15.6718 9.00853C15.7146 8.98935 15.7652 8.98398 15.813 8.99354C15.8608 9.0031 15.902 9.02685 15.928 9.0598C15.954 9.09276 15.9627 9.13235 15.9524 9.17028C15.9421 9.20821 15.9135 9.24152 15.8727 9.26323L14.7426 9.85843L16.0641 9.25843C16.1064 9.2396 16.1563 9.23422 16.2036 9.24338C16.2508 9.25255 16.2918 9.27557 16.3181 9.30773C16.3445 9.33989 16.3542 9.37876 16.3453 9.41639C16.3365 9.45401 16.3096 9.48755 16.2704 9.51013L13.0618 11.3116L16.7005 9.65893C16.7431 9.63974 16.7935 9.63426 16.8412 9.64361C16.8889 9.65296 16.9301 9.67643 16.9563 9.70913C16.9825 9.74182 16.9917 9.78121 16.9819 9.81909C16.9721 9.85697 16.9441 9.8904 16.9037 9.91243L13.8656 11.5543L17.2591 10.0123C17.302 9.99311 17.3528 9.98777 17.4006 9.99743C17.4485 10.0071 17.4897 10.031 17.5156 10.0641C17.5415 10.0972 17.5501 10.1369 17.5395 10.1749C17.5289 10.2128 17.5 10.2461 17.4588 10.2676L15.2855 11.3938L17.7059 10.2943C17.7486 10.2764 17.7984 10.2719 17.8452 10.2818C17.8919 10.2917 17.9322 10.3152 17.9577 10.3476C17.9832 10.38 17.9921 10.4188 17.9826 10.4561C17.9731 10.4935 17.9459 10.5266 17.9065 10.5487L14.9126 12.1135L18.213 10.6135C18.256 10.5949 18.3065 10.5901 18.354 10.6C18.4014 10.61 18.4421 10.6339 18.4677 10.6669C18.4932 10.6999 18.5016 10.7393 18.4911 10.7771C18.4806 10.8148 18.452 10.8479 18.4113 10.8694L16.7394 11.713L18.6077 10.8637C18.6505 10.8454 18.7007 10.8407 18.7478 10.8505C18.7949 10.8604 18.8355 10.8841 18.8611 10.9168C18.8867 10.9494 18.8954 10.9886 18.8854 11.0262C18.8754 11.0637 18.8475 11.0969 18.8075 11.1187L15.4998 12.8242L19.1129 11.1826C19.1561 11.1621 19.208 11.1559 19.2571 11.1654C19.3062 11.1749 19.3485 11.1994 19.3746 11.2335C19.4008 11.2675 19.4086 11.3084 19.3965 11.347C19.3844 11.3856 19.3533 11.4189 19.31 11.4394L18.3869 11.8984L19.4682 11.4076C19.5115 11.388 19.5629 11.3825 19.6112 11.3924C19.6596 11.4022 19.7011 11.4266 19.7269 11.4603C19.7526 11.494 19.7605 11.5343 19.7489 11.5725C19.7372 11.6108 19.7069 11.6439 19.6646 11.6647L19.4739 11.7583L19.795 11.6128C19.8381 11.5939 19.8888 11.5888 19.9366 11.5987C19.9843 11.6086 20.0253 11.6327 20.0509 11.6659C20.0766 11.699 20.0848 11.7388 20.074 11.7767C20.0632 11.8146 20.0341 11.8477 19.9929 11.869L16.8282 13.4632L20.2575 11.9056C20.3005 11.8863 20.3515 11.881 20.3994 11.8907C20.4474 11.9005 20.4887 11.9245 20.5145 11.9578C20.5403 11.9911 20.5487 12.0309 20.5378 12.069C20.5269 12.107 20.4976 12.1402 20.4561 12.1615L16.6215 14.0983L20.7562 12.22C20.7996 12.1996 20.8515 12.1935 20.9006 12.2032C20.9496 12.2129 20.9918 12.2375 21.0178 12.2716C21.0438 12.3058 21.0515 12.3466 21.0392 12.3852C21.0269 12.4238 20.9956 12.457 20.9522 12.4774L19.8804 13.0012L21.1093 12.4432C21.1523 12.4251 21.2024 12.4207 21.2494 12.4308C21.2965 12.4409 21.3368 12.4647 21.3621 12.4975C21.3875 12.5303 21.3959 12.5694 21.3857 12.6069C21.3754 12.6444 21.3474 12.6774 21.3072 12.6991L17.0021 14.863L21.6198 12.7657C21.663 12.7473 21.7135 12.7427 21.7608 12.7529C21.8082 12.7631 21.8487 12.7872 21.874 12.8203C21.8993 12.8534 21.9074 12.8929 21.8966 12.9305C21.8859 12.9682 21.8571 13.0011 21.8162 13.0225L18.8422 14.488L22.045 13.0336C22.0884 13.0133 22.1404 13.0073 22.1895 13.0171C22.2385 13.0269 22.2806 13.0516 22.3065 13.0858C22.3324 13.12 22.34 13.1609 22.3275 13.1995C22.3151 13.2381 22.2837 13.2713 22.2402 13.2916L22.2108 13.3054L22.3633 13.2355C22.4066 13.2168 22.4573 13.212 22.505 13.2221C22.5526 13.2322 22.5934 13.2565 22.6188 13.2898C22.6442 13.3231 22.6522 13.3628 22.6411 13.4006C22.63 13.4385 22.6007 13.4714 22.5593 13.4926L19.4168 15.0337L22.7869 13.5037C22.83 13.4844 22.8809 13.4791 22.9289 13.4888C22.9769 13.4986 23.0181 13.5226 23.044 13.5559C23.0698 13.5892 23.0781 13.629 23.0672 13.6671C23.0563 13.7051 23.0271 13.7383 22.9856 13.7596L16.4911 17.0476L23.418 13.9012C23.4612 13.8828 23.5119 13.8782 23.5593 13.8884C23.6068 13.8987 23.6474 13.923 23.6726 13.9562C23.6978 13.9895 23.7057 14.0291 23.6946 14.0668C23.6836 14.1045 23.6544 14.1374 23.6132 14.1586L21.7483 15.0586L23.7833 14.1343C23.8047 14.1242 23.8285 14.1175 23.8533 14.1146C23.8781 14.1117 23.9033 14.1127 23.9276 14.1175C23.9519 14.1223 23.9748 14.1308 23.9949 14.1425C24.015 14.1543 24.0319 14.169 24.0448 14.1859C24.0577 14.2028 24.0662 14.2216 24.0699 14.241C24.0735 14.2605 24.0723 14.2804 24.0662 14.2995C24.0601 14.3186 24.0493 14.3366 24.0344 14.3524C24.0195 14.3682 24.0007 14.3816 23.9792 14.3917L19.9052 16.3837L24.0723 14.491C24.1154 14.4724 24.166 14.4676 24.2135 14.4776C24.2611 14.4876 24.3018 14.5117 24.3273 14.5448C24.3527 14.578 24.3609 14.6176 24.3501 14.6553C24.3394 14.6931 24.3104 14.7262 24.2694 14.7475L18.3789 17.6626L23.9518 15.1306C23.995 15.1127 24.0453 15.1085 24.0923 15.1189C24.1393 15.1293 24.1795 15.1536 24.2045 15.1866C24.2295 15.2196 24.2374 15.2589 24.2266 15.2964C24.2159 15.3339 24.1872 15.3667 24.1466 15.388L21.9153 16.4659C21.9591 16.449 22.0094 16.4458 22.056 16.4572C22.1025 16.4685 22.1418 16.4934 22.1658 16.5268C22.1897 16.5603 22.1964 16.5996 22.1846 16.6369C22.1728 16.6741 22.1433 16.7063 22.1022 16.7269L20.0245 17.7328C20.061 17.7398 20.094 17.7551 20.1195 17.7767C20.145 17.7984 20.1618 17.8255 20.1678 17.8547C20.1738 17.8838 20.1687 17.9137 20.1532 17.9406C20.1377 17.9675 20.1124 17.9902 20.0806 18.0058L17.7204 19.171C17.7589 19.1747 17.7951 19.1874 17.8241 19.2077C17.8531 19.2279 17.8736 19.2546 17.8829 19.2842C17.8921 19.3139 17.8897 19.345 17.8758 19.3735C17.862 19.402 17.8374 19.4265 17.8054 19.4437L13.9853 21.5137C14.0487 21.5187 14.1071 21.5432 14.1477 21.5818C14.1742 21.6139 14.1841 21.6528 14.1754 21.6904C14.1667 21.7281 14.14 21.7616 14.1009 21.7843L11.9065 23.053C11.9176 23.085 11.9149 23.1189 11.8989 23.1495C11.8829 23.1801 11.8545 23.2057 11.8181 23.2222L10.9276 23.5078C10.9276 23.3794 10.729 23.3503 10.729 23.545Z" fill="#3B6EF8"/>
<path d="M15.4389 10.6937C15.5382 10.6583 15.6441 10.6453 15.7491 10.6555C15.8541 10.6657 15.9557 10.6989 16.0466 10.7528L20.4535 13.4434L21.0901 13.8317C21.2431 13.9235 21.2148 14.0744 21.061 14.1418C20.9616 14.1767 20.8558 14.1894 20.751 14.1788C20.6461 14.1683 20.5448 14.1348 20.4541 14.0808L16.0463 11.3922L15.4097 11.0039C15.256 10.9116 15.2853 10.7623 15.4389 10.6937Z" fill="#172B4D"/>
<path d="M11.603 23.3497C15.7176 20.7539 19.8308 18.1561 23.9426 15.5563C24.9287 14.9588 24.757 14.5805 23.9434 14.0455L15.5818 8.7646C13.776 7.6798 9.10179 3.7579 9.45334 8.0032C9.45334 11.872 9.45334 15.741 9.45334 19.6102C9.57726 20.9227 8.54092 24.6784 11.603 23.3497ZM10.1423 6.49C10.9743 5.7004 12.9112 7.8157 13.8054 8.134C28.5509 17.6092 25.9368 12.8509 12.1239 22.6804C9.7027 24.6289 9.96922 22.1215 10.0062 20.7403C10.1366 16.006 9.75227 11.1826 10.1423 6.49Z" fill="#172B4D"/>
</g>
<defs>
<clipPath id="clip0_193_116">
<rect width="18" height="18" fill="white" transform="translate(6.99998 6.00001)"/>
</clipPath>
</defs>
</svg>
